<svg t="1736083130623" class="icon" viewBox="0 0 1024 1024" version="1.1"
  xmlns="http://www.w3.org/2000/svg" p-id="4536" width="200" height="200">
  <path
    d="M826.88 0H197.12c-5.461333 0-10.786133 0.273067-16.110933 0.682667l-2.9696 0.238933a196.130133 196.130133 0 0 0-19.285334 2.8672 196.437333 196.437333 0 0 0-19.387733 4.881067l-1.262933 0.375466a198.656 198.656 0 0 0-135.611734 152.234667l0.750934 0.341333C1.092267 173.329067 0 185.173333 0 197.12v629.76C0 934.434133 87.005867 1024 197.085867 1024h629.828266c5.393067 0 10.752-0.273067 16.042667-0.682667l3.003733-0.238933c4.5056-0.477867 9.0112-1.058133 13.448534-1.809067a190.805333 190.805333 0 0 0 25.258666-5.9392l1.2288-0.375466a198.690133 198.690133 0 0 0 135.611734-152.234667l-0.750934-0.341333c2.082133-11.502933 3.242667-23.3472 3.242667-35.498667V197.12C1024 89.6 936.994133 0 826.88 0z m-314.709333 794.112a424.209067 424.209067 0 0 1-117.486934-16.384 34.816 34.816 0 0 0-10.581333-1.6384 37.546667 37.546667 0 0 0-19.114667 5.5296l-78.677333 45.397333a13.755733 13.755733 0 0 1-6.929067 2.184534 11.946667 11.946667 0 0 1-11.9808-11.912534 37.546667 37.546667 0 0 1 1.877334-8.772266l16.213333-60.416a24.098133 24.098133 0 0 0-8.8064-27.409067c-75.6736-54.8864-124.074667-136.192-124.074667-226.304 0-165.2736 160.8704-299.485867 359.082667-299.485867 121.378133 0 228.590933 50.107733 293.7856 126.805334l-362.973867 161.4848c-10.581333 3.9936-22.391467 2.594133-31.914666-3.584l-77.175467-54.818134a12.014933 12.014933 0 0 0-18.090667 14.677334l65.399467 143.530666 1.570133 3.413334a23.927467 23.927467 0 0 0 31.709867 9.591466l0.2048 0.3072 2.594133-1.501866 413.696-238.7968a259.140267 259.140267 0 0 1 40.891734 138.683733c0 165.410133-160.802133 299.4176-359.185067 299.4176z"
    fill="#00C900" p-id="4537"></path>
</svg>